:SAMPLES-PER-SECOND 30
:FRAME-RANGE 1-1086
:FULLY-SPECIFIED
:DEGREES
68
root  13.5313 37.9866 -131.565 -173.266 -36.9447 174.702
RightUpLeg  -27.7225 -2.39484 2.92386
RightLeg  7.11516 -14.7156 1.50008
RightFoot  -7.20205 -0.261734 5.88064
RightToes  1.21801e-010 1.2921e-014 -6.02303e-014
Spine  -2.96386 -5.8601 -1.41399
Spine1  13.6302 -7.1391 3.46145
HEad  36.919 0.565646 3.16842
LeftShoulder1  2.9904 -8.47277 -19.1294
LeftArm  -3.33555 -17.9872 -51.6466
LeftForeArm  33.5734 6.82735 -12.4128
LeftHand  -0.0220603 5.59413 2.946
RightShoulder  1.67873 2.05751 25.2305
RightArm  -23.2879 8.82531 46.4243
RightForeArm  57.719 -0.288501 5.15732
RightHand  -0.192864 -4.07302 -16.0323
LeftUpLeg  -3.19041 -0.300898 -15.7791
LeftLeg  24.9677 10.4728 5.62193
LeftFoot  -19.3919 0.407134 4.12773
LeftToes  3.79492e-011 -8.60219e-011 1.56273e-011
69
root  12.3575 37.6413 -132.099 -172.878 -35.6846 174.734
RightUpLeg  -28.44 -2.63541 3.92333
RightLeg  8.66331 -15.2725 0.673232
RightFoot  -7.28209 -0.268767 6.17895
RightToes  1.21801e-010 1.2921e-014 -6.02303e-014
Spine  -1.34384 -6.20097 -0.264821
Spine1  13.7437 -7.63064 3.61493
HEad  35.0401 1.11266 2.48917
LeftShoulder1  3.07913 -9.19576 -18.3084
LeftArm  -3.69672 -20.3071 -51.8476
LeftForeArm  32.0122 7.77322 -12.2664
LeftHand  -0.0257114 5.40792 3.05991
RightShoulder  1.7478 2.42541 24.3956
RightArm  -22.8821 11.4586 46.7397
RightForeArm  56.6909 0.0698311 5.29902
RightHand  -0.205555 -3.95392 -15.7402
LeftUpLeg  -4.95083 3.33867 -16.3613
LeftLeg  30.7793 7.66854 5.26354
LeftFoot  -19.5231 0.28588 2.35773
LeftToes  3.79492e-011 -8.60219e-011 1.56273e-011
70
root  11.2567 37.2508 -132.67 -172.932 -34.3312 175.625
RightUpLeg  -30.1229 -4.56028 6.52472
RightLeg  13.0277 -9.06718 -0.628281
RightFoot  -6.22655 -0.157119 2.56917
RightToes  1.21801e-010 1.2921e-014 -6.02303e-014
Spine  0.432913 -6.23694 1.43422
Spine1  14.2418 -7.91789 3.97753
HEad  33.6306 1.2211 2.27438
LeftShoulder1  3.04619 -9.71255 -16.9715
LeftArm  -4.85354 -22.5488 -52.707
LeftForeArm  31.4194 7.70475 -11.7698
LeftHand  -0.0272135 5.3395 2.99415
RightShoulder  1.86913 2.96443 23.6857
RightArm  -22.3299 14.3316 46.573
RightForeArm  55.6477 0.0698135 5.48637
RightHand  -0.23122 -3.7104 -15.2605
LeftUpLeg  -8.27143 9.74793 -14.9494
LeftLeg  39.352 1.70377 1.88515
LeftFoot  -17.7071 0.077389 -0.518203
LeftToes  3.79492e-011 -8.60219e-011 1.56273e-011
71
root  10.4392 36.9136 -133.129 -173.004 -32.6809 177.51
RightUpLeg  -34.4746 -3.72408 9.53652
RightLeg  19.6237 -10.1806 -3.9286
RightFoot  1.03991 0.482152 -4.37446
RightToes  1.21801e-010 1.2921e-014 -6.02303e-014
Spine  3.04974 -5.63478 3.20335
Spine1  14.0895 -7.74085 5.21772
HEad  31.8631 0.379044 2.69228
LeftShoulder1  3.07955 -10.4869 -15.7997
LeftArm  -5.48028 -25.3968 -52.9899
LeftForeArm  31.0449 7.68093 -11.583
LeftHand  -0.0271593 5.35618 2.61766
RightShoulder  1.99973 3.41017 23.662
RightArm  -22.0269 17.8094 45.7612
RightForeArm  54.6726 -0.89951 5.43803
RightHand  -0.273565 -3.40848 -15.4711
LeftUpLeg  -14.7369 14.4871 -11.6085
LeftLeg  51.5849 -4.34575 -5.4013
LeftFoot  -11.0272 0.0838211 -6.49029
LeftToes  3.79492e-011 -8.60219e-011 1.56273e-011
72
root  9.67221 36.4187 -133.495 -172.973 -30.3845 178.721
RightUpLeg  -38.1895 -3.84626 11.0792
RightLeg  26.9606 -7.19325 -4.19017
RightFoot  0.126303 0.717341 -7.12005
RightToes  1.21801e-010 1.2921e-014 -6.02303e-014
Spine  7.08759 -5.07179 4.21812
Spine1  12.9423 -6.99884 5.50343
HEad  29.2966 -0.050828 3.38668
LeftShoulder1  3.09656 -10.7952 -15.3965
LeftArm  -6.26877 -28.8337 -51.816
LeftForeArm  30.5865 7.63709 -11.2622
LeftHand  -0.0256769 5.50628 2.07209
RightShoulder  2.27382 4.42292 23.3076
RightArm  -23.0182 22.3661 46.1466
RightForeArm  53.8221 -3.88194 4.19672
RightHand  -0.320322 -3.12501 -15.9804
LeftUpLeg  -22.1624 16.1758 -8.47475
LeftLeg  64.0423 -6.41157 -13.4808
LeftFoot  -4.37383 1.00423 -15.9799
LeftToes  3.79492e-011 -8.60219e-011 1.56273e-011
73
root  8.91282 36.153 -133.823 -173.057 -26.9159 179.805
RightUpLeg  -39.6704 -1.04419 11.4862
RightLeg  31.1078 -6.73919 -4.61884
RightFoot  -0.257695 0.999473 -10.2804
RightToes  1.21801e-010 1.2921e-014 -6.02303e-014
Spine  10.7201 -4.31844 5.33718
Spine1  13.1357 -5.89516 4.83691
HEad  26.7063 0.544883 3.61254
LeftShoulder1  3.4 -12.651 -14.6714
LeftArm  -6.56993 -31.0268 -47.9346
LeftForeArm  26.6804 7.70588 -11.4021
LeftHand  -0.0277192 5.3675 1.75182
RightShoulder  2.50716 5.4314 22.5539
RightArm  -24.8468 27.3679 48.0526
RightForeArm  53.5493 -5.65538 2.21208
RightHand  -0.347696 -2.98792 -16.4145
LeftUpLeg  -28.6812 15.4821 -6.13439
LeftLeg  72.3849 -3.99122 -13.05
LeftFoot  -6.68118 0.617569 -14.1382
LeftToes  3.79492e-011 -8.60219e-011 1.56273e-011
74
root  8.20151 36.2395 -134.171 -171.832 -24.2813 178.973
RightUpLeg  -40.3336 0.460713 10.0505
RightLeg  32.7262 -5.85534 -4.29266
RightFoot  -0.501371 1.04137 -10.9657
RightToes  1.21801e-010 1.2921e-014 -6.02303e-014
Spine  13.766 -3.61022 3.96946
Spine1  12.8149 -5.02312 4.36716
HEad  24.7577 0.651702 3.81142
LeftShoulder1  3.41958 -13.302 -13.8789
LeftArm  -8.52262 -33.9844 -45.906
LeftForeArm  25.6439 7.60812 -10.7139
LeftHand  -0.0357444 4.98015 3.41749
RightShoulder  2.65822 6.02089 22.3553
RightArm  -27.1434 31.7293 49.7289
RightForeArm  52.0592 -5.33127 0.0502207
RightHand  -0.355895 -2.77482 -15.4571
LeftUpLeg  -34.2503 14.4134 -4.87016
LeftLeg  75.2282 -1.91765 -7.20854
LeftFoot  -8.66883 0.277105 -9.64037
LeftToes  3.79492e-011 -8.60219e-011 1.56273e-011
